# xmcd CD database file
#
# Track frame offsets:
#	150
#	19910
#	39992
#	59297
#	77977
#	98452
#	117217
#	140075
#	162922
#	179007
#	202062
#
# Disc length: 2984 seconds
#
# Revision: 0
# Processed by: cddbd v1.5PL3 Copyright (c) Steve Scherf et al.
# Submitted via: CDex 1.50
#
DISCID=960ba60b
DTITLE=FEEL - FACE 2 FACE
DYEAR=1999
DGENRE=Rock
TTITLE0=Voice
TTITLE1=Fateful Words
TTITLE2=Shinkirou
TTITLE3=Tsutaetai
TTITLE4=Love Illusion
TTITLE5=Romance
TTITLE6=Shape Of Fortune
TTITLE7=Virgin Butterfly
TTITLE8=Deep
TTITLE9=Everlasting
TTITLE10=Voice -Faded Flower-
EXTD=YEAR: 1999
EXTT0=
EXTT1=
EXTT2=
EXTT3=
EXTT4=
EXTT5=
EXTT6=
EXTT7=
EXTT8=
EXTT9=
EXTT10=
PLAYORDER=
